# Blender v2.81 (sub 16) OBJ File: ''
# www.blender.org
mtllib model.mtl
o group_3_ID28.008
v 0.007418 0.590725 -1.379597
v 0.504418 0.585248 -0.014836
v 0.504419 0.585248 -1.379597
v 0.007417 0.590725 -0.014836
v 0.007418 0.590725 -1.379597
v 0.504419 0.579853 -1.379597
v 0.007418 0.574376 -1.379597
v 0.504419 0.585248 -1.379597
v 0.007417 0.574376 -0.014836
v 0.007418 0.590725 -1.379597
v 0.007418 0.574376 -1.379597
v 0.007417 0.590725 -0.014836
v 0.504418 0.579853 -0.014836
v 0.007417 0.590725 -0.014836
v 0.007417 0.574376 -0.014836
v 0.504418 0.585248 -0.014836
v 0.504418 0.585248 -0.014836
v 0.504419 0.579853 -1.379597
v 0.504419 0.585248 -1.379597
v 0.504418 0.579853 -0.014836
v 0.007417 0.574376 -0.014836
v 0.504419 0.579853 -1.379597
v 0.504418 0.579853 -0.014836
v 0.007418 0.574376 -1.379597
v 0.994002 0.014836 -1.380200
v 0.994001 0.014836 -0.014836
v 0.994002 0.586899 -1.380200
v 0.994001 0.586899 -0.014836
v 0.994001 0.586899 -0.014836
v 0.994001 0.014836 -0.014836
v 0.014836 0.586899 -0.014836
v 0.014836 0.014836 -0.014836
v 0.014836 0.014836 -0.014836
v 0.994001 0.014836 -0.014836
v 0.014836 0.014836 -1.380200
v 0.994002 0.014836 -1.380200
v 0.994002 0.014836 -1.380200
v 0.994002 0.586899 -1.380200
v 0.014836 0.014836 -1.380200
v 0.014836 0.586899 -1.380201
v 1.008837 0.581558 -0.019731
v 1.008837 0.581558 -1.375304
v 0.994001 0.586899 -0.014836
v 0.994002 0.586899 -1.380200
v 0.014836 0.014836 -1.380200
v 0.014836 0.586899 -1.380201
v 0.014836 0.014836 -0.014836
v 0.014836 0.586899 -0.014836
v 0.989105 0.581558 0.000000
v 0.994001 0.586899 -0.014836
v 0.019731 0.581558 0.000000
v 0.014836 0.586899 -0.014836
v 0.014836 0.586899 -1.380201
v 0.994002 0.586899 -1.380200
v 0.019732 0.581558 -1.395036
v 0.989105 0.581558 -1.395036
v 0.989105 0.581558 -1.395036
v 0.994002 0.586899 -1.380200
v 1.008837 0.581558 -1.375304
v 1.008837 0.005341 -1.375304
v 1.008837 0.581558 -1.375304
v 1.008837 0.005341 -0.019731
v 1.008837 0.581558 -0.019731
v 1.008837 0.581558 -0.019731
v 0.994001 0.586899 -0.014836
v 0.989105 0.581558 0.000000
v -0.000000 0.581558 -0.019732
v 0.014836 0.586899 -0.014836
v 0.000000 0.581558 -1.375305
v 0.014836 0.586899 -1.380201
v 0.989105 0.005341 0.000000
v 0.989105 0.581558 0.000000
v 0.019731 0.005341 0.000000
v 0.019731 0.581558 0.000000
v 0.014836 0.586899 -0.014836
v -0.000000 0.581558 -0.019732
v 0.019731 0.581558 0.000000
v 0.989105 0.581558 -1.395036
v 0.989105 0.005341 -1.395036
v 0.019732 0.581558 -1.395036
v 0.019732 0.005341 -1.395036
v 0.014836 0.586899 -1.380201
v 0.019732 0.581558 -1.395036
v 0.000000 0.581558 -1.375305
v 1.008837 0.581558 -1.375304
v 1.008837 0.005341 -1.375304
v 0.989105 0.581558 -1.395036
v 0.989105 0.005341 -1.395036
v 1.008837 0.005341 -0.019731
v 0.994001 0.000000 -0.014836
v 1.008837 0.005341 -1.375304
v 0.994002 0.000000 -1.380200
v 0.989105 0.005341 0.000000
v 1.008837 0.005341 -0.019731
v 0.989105 0.581558 0.000000
v 1.008837 0.581558 -0.019731
v -0.000000 0.005341 -0.019732
v -0.000000 0.581558 -0.019732
v 0.000000 0.005341 -1.375305
v 0.000000 0.581558 -1.375305
v 0.989105 0.005341 0.000000
v 0.019731 0.005341 0.000000
v 0.994001 0.000000 -0.014836
v 0.014836 0.000000 -0.014836
v 0.019731 0.005341 0.000000
v 0.019731 0.581558 0.000000
v -0.000000 0.005341 -0.019732
v -0.000000 0.581558 -0.019732
v 0.994002 0.000000 -1.380200
v 0.014836 0.000000 -1.380200
v 0.989105 0.005341 -1.395036
v 0.019732 0.005341 -1.395036
v 0.000000 0.005341 -1.375305
v 0.000000 0.581558 -1.375305
v 0.019732 0.005341 -1.395036
v 0.019732 0.581558 -1.395036
v 0.994002 0.000000 -1.380200
v 0.989105 0.005341 -1.395036
v 1.008837 0.005341 -1.375304
v 0.994001 0.000000 -0.014836
v 0.014836 0.000000 -0.014836
v 0.994002 0.000000 -1.380200
v 0.014836 0.000000 -1.380200
v 0.994001 0.000000 -0.014836
v 1.008837 0.005341 -0.019731
v 0.989105 0.005341 0.000000
v -0.000000 0.005341 -0.019732
v 0.000000 0.005341 -1.375305
v 0.014836 0.000000 -0.014836
v 0.014836 0.000000 -1.380200
v -0.000000 0.005341 -0.019732
v 0.014836 0.000000 -0.014836
v 0.019731 0.005341 0.000000
v 0.019732 0.005341 -1.395036
v 0.014836 0.000000 -1.380200
v 0.000000 0.005341 -1.375305
v 1.001419 0.590725 -0.014836
v 1.001419 0.590725 -1.379597
v 0.504418 0.585248 -0.014836
v 0.504418 0.585248 -1.379597
v 0.504418 0.585248 -1.379597
v 1.001419 0.590725 -1.379597
v 0.504418 0.579853 -1.379597
v 1.001419 0.574376 -1.379597
v 1.001419 0.590725 -0.014836
v 1.001419 0.574376 -0.014836
v 1.001419 0.590725 -1.379597
v 1.001419 0.574376 -1.379597
v 0.504418 0.585248 -0.014836
v 0.504418 0.579853 -0.014836
v 1.001419 0.590725 -0.014836
v 1.001419 0.574376 -0.014836
v 0.504418 0.579853 -0.014836
v 0.504418 0.585248 -0.014836
v 0.504418 0.579853 -1.379597
v 0.504418 0.585248 -1.379597
v 1.001419 0.574376 -1.379597
v 1.001419 0.574376 -0.014836
v 0.504418 0.579853 -1.379597
v 0.504418 0.579853 -0.014836
vt 0.002848 0.307128
vt 0.193667 0.991482
vt 0.193667 0.307128
vt 0.002848 0.991482
vt 0.002848 0.307128
vt 0.193667 0.307128
vt 0.002848 0.307128
vt 0.193667 0.307128
vt 0.002848 0.991482
vt 0.002848 0.307128
vt 0.002848 0.307128
vt 0.002848 0.991482
vt 0.193667 0.991482
vt 0.002848 0.991482
vt 0.002848 0.991482
vt 0.193667 0.991482
vt 0.193667 0.991482
vt 0.193667 0.307128
vt 0.193667 0.307128
vt 0.193667 0.991482
vt 0.002848 0.991482
vt 0.193667 0.307128
vt 0.193667 0.991482
vt 0.002848 0.307128
vt 0.000000 0.000000
vt 0.000000 0.000000
vt 0.000000 0.000000
vt 0.000000 0.000000
vt 0.000000 0.000000
vt 0.000000 0.000000
vt 0.000000 0.000000
vt 0.000000 0.000000
vt 0.000000 0.000000
vt 0.000000 0.000000
vt 0.000000 0.000000
vt 0.000000 0.000000
vt 0.000000 0.000000
vt 0.000000 0.000000
vt 0.000000 0.000000
vt 0.000000 0.000000
vt 0.000000 0.000000
vt 0.000000 0.000000
vt 0.000000 0.000000
vt 0.000000 0.000000
vt 0.000000 0.000000
vt 0.000000 0.000000
vt 0.000000 0.000000
vt 0.000000 0.000000
vt 0.000000 0.000000
vt 0.000000 0.000000
vt 0.000000 0.000000
vt 0.000000 0.000000
vt 0.000000 0.000000
vt 0.000000 0.000000
vt 0.000000 0.000000
vt 0.000000 0.000000
vt 0.000000 0.000000
vt 0.000000 0.000000
vt 0.000000 0.000000
vt 0.000000 0.000000
vt 0.000000 0.000000
vt 0.000000 0.000000
vt 0.000000 0.000000
vt 0.000000 0.000000
vt 0.000000 0.000000
vt 0.000000 0.000000
vt 0.000000 0.000000
vt 0.000000 0.000000
vt 0.000000 0.000000
vt 0.000000 0.000000
vt 0.000000 0.000000
vt 0.000000 0.000000
vt 0.000000 0.000000
vt 0.000000 0.000000
vt 0.000000 0.000000
vt 0.000000 0.000000
vt 0.000000 0.000000
vt 0.000000 0.000000
vt 0.000000 0.000000
vt 0.000000 0.000000
vt 0.000000 0.000000
vt 0.000000 0.000000
vt 0.000000 0.000000
vt 0.000000 0.000000
vt 0.000000 0.000000
vt 0.000000 0.000000
vt 0.000000 0.000000
vt 0.000000 0.000000
vt 0.000000 0.000000
vt 0.000000 0.000000
vt 0.000000 0.000000
vt 0.000000 0.000000
vt 0.000000 0.000000
vt 0.000000 0.000000
vt 0.000000 0.000000
vt 0.000000 0.000000
vt 0.000000 0.000000
vt 0.000000 0.000000
vt 0.000000 0.000000
vt 0.000000 0.000000
vt 0.000000 0.000000
vt 0.000000 0.000000
vt 0.000000 0.000000
vt 0.000000 0.000000
vt 0.000000 0.000000
vt 0.000000 0.000000
vt 0.000000 0.000000
vt 0.000000 0.000000
vt 0.000000 0.000000
vt 0.000000 0.000000
vt 0.000000 0.000000
vt 0.000000 0.000000
vt 0.000000 0.000000
vt 0.000000 0.000000
vt 0.000000 0.000000
vt 0.000000 0.000000
vt 0.000000 0.000000
vt 0.000000 0.000000
vt 0.000000 0.000000
vt 0.000000 0.000000
vt 0.000000 0.000000
vt 0.000000 0.000000
vt 0.000000 0.000000
vt 0.000000 0.000000
vt 0.000000 0.000000
vt 0.000000 0.000000
vt 0.000000 0.000000
vt 0.000000 0.000000
vt 0.000000 0.000000
vt 0.000000 0.000000
vt 0.000000 0.000000
vt 0.000000 0.000000
vt 0.000000 0.000000
vt 0.000000 0.000000
vt 0.000000 0.000000
vt 0.000000 0.000000
vt 0.000000 0.000000
vt 0.000000 0.000000
vt 0.000000 0.000000
vt 0.000000 0.000000
vt 0.000000 0.000000
vt 0.000000 0.000000
vt 0.000000 0.000000
vt 0.000000 0.000000
vt 0.000000 0.000000
vt 0.000000 0.000000
vt 0.000000 0.000000
vt 0.000000 0.000000
vt 0.000000 0.000000
vt 0.000000 0.000000
vt 0.000000 0.000000
vt 0.000000 0.000000
vt 0.000000 0.000000
vt 0.000000 0.000000
vt 0.000000 0.000000
vt 0.000000 0.000000
vt 0.000000 0.000000
vt 0.000000 0.000000
vt 0.000000 0.000000
vt 0.000000 0.000000
vn 0.0110 0.9999 0.0000
vn 0.0000 0.0000 -1.0000
vn -1.0000 0.0000 -0.0000
vn -0.0000 0.0000 1.0000
vn 1.0000 0.0000 0.0000
vn 0.0110 -0.9999 -0.0000
vn 0.0000 1.0000 -0.0000
vn 0.3387 0.9409 0.0000
vn -0.0000 0.9409 0.3387
vn 0.0000 0.9409 -0.3387
vn 0.4278 0.7962 -0.4278
vn 0.4278 0.7962 0.4278
vn -0.3387 0.9409 -0.0000
vn -0.4278 0.7962 0.4278
vn -0.4278 0.7962 -0.4278
vn 0.7071 0.0000 -0.7071
vn 0.3387 -0.9409 0.0000
vn 0.7071 0.0000 0.7071
vn -0.0000 -0.9409 0.3387
vn -0.7071 0.0000 0.7071
vn 0.0000 -0.9409 -0.3387
vn -0.7071 0.0000 -0.7071
vn 0.4278 -0.7962 -0.4278
vn -0.0000 -1.0000 0.0000
vn 0.4278 -0.7962 0.4278
vn -0.3387 -0.9409 -0.0000
vn -0.4278 -0.7962 0.4278
vn -0.4278 -0.7962 -0.4278
vn -0.0110 0.9999 0.0000
vn -0.0110 -0.9999 0.0000
usemtl BOX_STUFF15.008
s off
f 1/1/1 2/2/1 3/3/1
f 2/2/1 1/1/1 4/4/1
f 5/5/2 6/6/2 7/7/2
f 6/6/2 5/5/2 8/8/2
f 9/9/3 10/10/3 11/11/3
f 10/10/3 9/9/3 12/12/3
f 13/13/4 14/14/4 15/15/4
f 14/14/4 13/13/4 16/16/4
f 17/17/5 18/18/5 19/19/5
f 18/18/5 17/17/5 20/20/5
f 21/21/6 22/22/6 23/23/6
f 22/22/6 21/21/6 24/24/6
f 25/25/3 26/26/3 27/27/3
f 28/28/3 27/27/3 26/26/3
f 29/29/2 30/30/2 31/31/2
f 32/32/2 31/31/2 30/30/2
f 33/33/7 34/34/7 35/35/7
f 36/36/7 35/35/7 34/34/7
f 37/37/4 38/38/4 39/39/4
f 40/40/4 39/39/4 38/38/4
f 41/41/8 42/42/8 43/43/8
f 44/44/8 43/43/8 42/42/8
f 45/45/5 46/46/5 47/47/5
f 48/48/5 47/47/5 46/46/5
f 49/49/9 50/50/9 51/51/9
f 52/52/9 51/51/9 50/50/9
f 53/53/10 54/54/10 55/55/10
f 56/56/10 55/55/10 54/54/10
f 57/57/11 58/58/11 59/59/11
f 60/60/5 61/61/5 62/62/5
f 63/63/5 62/62/5 61/61/5
f 64/64/12 65/65/12 66/66/12
f 67/67/13 68/68/13 69/69/13
f 70/70/13 69/69/13 68/68/13
f 71/71/4 72/72/4 73/73/4
f 74/74/4 73/73/4 72/72/4
f 75/75/14 76/76/14 77/77/14
f 78/78/2 79/79/2 80/80/2
f 81/81/2 80/80/2 79/79/2
f 82/82/15 83/83/15 84/84/15
f 85/85/16 86/86/16 87/87/16
f 88/88/16 87/87/16 86/86/16
f 89/89/17 90/90/17 91/91/17
f 92/92/17 91/91/17 90/90/17
f 93/93/18 94/94/18 95/95/18
f 96/96/18 95/95/18 94/94/18
f 97/97/3 98/98/3 99/99/3
f 100/100/3 99/99/3 98/98/3
f 101/101/19 102/102/19 103/103/19
f 104/104/19 103/103/19 102/102/19
f 105/105/20 106/106/20 107/107/20
f 108/108/20 107/107/20 106/106/20
f 109/109/21 110/110/21 111/111/21
f 112/112/21 111/111/21 110/110/21
f 113/113/22 114/114/22 115/115/22
f 116/116/22 115/115/22 114/114/22
f 117/117/23 118/118/23 119/119/23
f 120/120/24 121/121/24 122/122/24
f 123/123/24 122/122/24 121/121/24
f 124/124/25 125/125/25 126/126/25
f 127/127/26 128/128/26 129/129/26
f 130/130/26 129/129/26 128/128/26
f 131/131/27 132/132/27 133/133/27
f 134/134/28 135/135/28 136/136/28
f 137/137/29 138/138/29 139/139/29
f 140/140/29 139/139/29 138/138/29
f 141/141/2 142/142/2 143/143/2
f 144/144/2 143/143/2 142/142/2
f 145/145/5 146/146/5 147/147/5
f 148/148/5 147/147/5 146/146/5
f 149/149/4 150/150/4 151/151/4
f 152/152/4 151/151/4 150/150/4
f 153/153/3 154/154/3 155/155/3
f 156/156/3 155/155/3 154/154/3
f 157/157/30 158/158/30 159/159/30
f 160/160/30 159/159/30 158/158/30
